<?xml version="1.0" encoding="UTF-8" standalone="no"?>
<!DOCTYPE svg PUBLIC "-//W3C//DTD SVG 1.1//EN" "http://www.w3.org/Graphics/SVG/1.1/DTD/svg11.dtd">
<!-- Generated by graphviz version 2.40.1 (20161225.0304)
 -->
<!-- Title: G Pages: 1 -->
<svg width="775pt" height="172pt" viewBox="0.00 0.00 775.37 172.00" xmlns="http://www.w3.org/2000/svg" xmlns:xlink="http://www.w3.org/1999/xlink">
<g id="graph0" class="graph" transform="scale(1 1) rotate(0) translate(4 168)">
<title>G</title>
<polygon fill="#ffffff" stroke="transparent" points="-4,4 -4,-168 771.3736,-168 771.3736,4 -4,4"/>
<g id="clust1" class="cluster">
<title>cluster_0</title>
<polygon fill="#d3d3d3" stroke="#d3d3d3" points="202.5081,-25 202.5081,-156 570.6233,-156 570.6233,-25 202.5081,-25"/>
<text text-anchor="middle" x="386.5657" y="-139.4" font-family="Times,serif" font-size="14.00" fill="#000000">Customers</text>
</g>
<!-- 客户1 -->
<g id="node1" class="node">
<title>客户1</title>
<ellipse fill="#ffffff" stroke="#ffffff" cx="247.1915" cy="-105" rx="36.8678" ry="18"/>
<text text-anchor="middle" x="247.1915" y="-100.8" font-family="Times,serif" font-size="14.00" fill="#000000">客户1</text>
</g>
<!-- 客户4 -->
<g id="node2" class="node">
<title>客户4</title>
<ellipse fill="#ffffff" stroke="#ffffff" cx="525.9399" cy="-105" rx="36.8678" ry="18"/>
<text text-anchor="middle" x="525.9399" y="-100.8" font-family="Times,serif" font-size="14.00" fill="#000000">客户4</text>
</g>
<!-- 客户1&#45;&gt;客户4 -->
<g id="edge1" class="edge">
<title>客户1-&gt;客户4</title>
<path fill="none" stroke="#000000" d="M294.0891,-105C345.5006,-105 427.5054,-105 478.9525,-105"/>
<polygon fill="#000000" stroke="#000000" points="293.9196,-101.5001 283.9196,-105 293.9196,-108.5001 293.9196,-101.5001"/>
<polygon fill="#000000" stroke="#000000" points="479.1305,-108.5001 489.1305,-105 479.1304,-101.5001 479.1305,-108.5001"/>
</g>
<!-- 客户2 -->
<g id="node3" class="node">
<title>客户2</title>
<ellipse fill="#ffffff" stroke="#ffffff" cx="525.9399" cy="-51" rx="36.8678" ry="18"/>
<text text-anchor="middle" x="525.9399" y="-46.8" font-family="Times,serif" font-size="14.00" fill="#000000">客户2</text>
</g>
<!-- 客户1&#45;&gt;客户2 -->
<g id="edge2" class="edge">
<title>客户1-&gt;客户2</title>
<path fill="none" stroke="#000000" d="M291.265,-96.4619C343.2961,-86.3823 429.3316,-69.7153 481.5151,-59.6061"/>
<polygon fill="#000000" stroke="#000000" points="290.5233,-93.0405 281.3715,-98.3785 291.8547,-99.9127 290.5233,-93.0405"/>
<polygon fill="#000000" stroke="#000000" points="482.3285,-63.0137 491.4803,-57.6756 480.9972,-56.1415 482.3285,-63.0137"/>
</g>
<!-- 终点车场 -->
<g id="node6" class="node">
<title>终点车场</title>
<polygon fill="none" stroke="#000000" points="683.4985,-69 599.748,-51 683.4985,-33 767.2489,-51 683.4985,-69"/>
<polyline fill="none" stroke="#000000" points="611.4801,-53.5215 611.4801,-48.4785 "/>
<polyline fill="none" stroke="#000000" points="671.7664,-35.5215 695.2306,-35.5215 "/>
<polyline fill="none" stroke="#000000" points="755.5168,-48.4785 755.5168,-53.5215 "/>
<polyline fill="none" stroke="#000000" points="695.2306,-66.4785 671.7664,-66.4785 "/>
<text text-anchor="middle" x="683.4985" y="-46.8" font-family="Times,serif" font-size="14.00" fill="#000000">终点车场</text>
</g>
<!-- 客户4&#45;&gt;终点车场 -->
<g id="edge8" class="edge">
<title>客户4-&gt;终点车场</title>
<path fill="none" stroke="#000000" d="M556.3188,-94.5883C580.5301,-86.2903 614.6995,-74.5795 641.5247,-65.3857"/>
<polygon fill="#000000" stroke="#000000" points="642.7182,-68.6765 651.0433,-62.1234 640.4487,-62.0546 642.7182,-68.6765"/>
</g>
<!-- 客户2&#45;&gt;终点车场 -->
<g id="edge7" class="edge">
<title>客户2-&gt;终点车场</title>
<path fill="none" stroke="#000000" d="M562.8804,-51C571.0295,-51 580.02,-51 589.308,-51"/>
<polygon fill="#000000" stroke="#000000" points="589.4774,-54.5001 599.4774,-51 589.4773,-47.5001 589.4774,-54.5001"/>
</g>
<!-- 客户3 -->
<g id="node4" class="node">
<title>客户3</title>
<ellipse fill="#ffffff" stroke="#ffffff" cx="247.1915" cy="-51" rx="36.8678" ry="18"/>
<text text-anchor="middle" x="247.1915" y="-46.8" font-family="Times,serif" font-size="14.00" fill="#000000">客户3</text>
</g>
<!-- 客户3&#45;&gt;客户4 -->
<g id="edge4" class="edge">
<title>客户3-&gt;客户4</title>
<path fill="none" stroke="#000000" d="M291.265,-59.5381C343.2961,-69.6177 429.3316,-86.2847 481.5151,-96.3939"/>
<polygon fill="#000000" stroke="#000000" points="291.8547,-56.0873 281.3715,-57.6215 290.5233,-62.9595 291.8547,-56.0873"/>
<polygon fill="#000000" stroke="#000000" points="480.9972,-99.8585 491.4803,-98.3244 482.3285,-92.9863 480.9972,-99.8585"/>
</g>
<!-- 客户3&#45;&gt;客户2 -->
<g id="edge3" class="edge">
<title>客户3-&gt;客户2</title>
<path fill="none" stroke="#000000" d="M294.0891,-51C345.5006,-51 427.5054,-51 478.9525,-51"/>
<polygon fill="#000000" stroke="#000000" points="293.9196,-47.5001 283.9196,-51 293.9196,-54.5001 293.9196,-47.5001"/>
<polygon fill="#000000" stroke="#000000" points="479.1305,-54.5001 489.1305,-51 479.1304,-47.5001 479.1305,-54.5001"/>
</g>
<!-- 起点车场 -->
<g id="node5" class="node">
<title>起点车场</title>
<polygon fill="none" stroke="#000000" points="86.754,-69 .2453,-51 86.754,-33 173.2628,-51 86.754,-69"/>
<polyline fill="none" stroke="#000000" points="11.9937,-53.4445 11.9937,-48.5555 "/>
<polyline fill="none" stroke="#000000" points="75.0056,-35.4445 98.5024,-35.4445 "/>
<polyline fill="none" stroke="#000000" points="161.5144,-48.5555 161.5144,-53.4445 "/>
<polyline fill="none" stroke="#000000" points="98.5024,-66.5555 75.0056,-66.5555 "/>
<text text-anchor="middle" x="86.754" y="-46.8" font-family="Times,serif" font-size="14.00" fill="#000000">起点车场</text>
</g>
<!-- 起点车场&#45;&gt;客户1 -->
<g id="edge5" class="edge">
<title>起点车场-&gt;客户1</title>
<path fill="none" stroke="#000000" d="M119.9968,-62.1888C145.3376,-70.718 180.335,-82.4975 207.2057,-91.5416"/>
<polygon fill="#000000" stroke="#000000" points="206.1107,-94.8659 216.7048,-94.7388 208.3437,-88.2316 206.1107,-94.8659"/>
</g>
<!-- 起点车场&#45;&gt;客户3 -->
<g id="edge6" class="edge">
<title>起点车场-&gt;客户3</title>
<path fill="none" stroke="#000000" d="M173.5466,-51C182.785,-51 191.9063,-51 200.416,-51"/>
<polygon fill="#000000" stroke="#000000" points="200.4594,-54.5001 210.4593,-51 200.4593,-47.5001 200.4594,-54.5001"/>
</g>
<!-- 起点车场&#45;&gt;终点车场 -->
<g id="edge9" class="edge">
<title>起点车场-&gt;终点车场</title>
<path fill="none" stroke="#ff0000" d="M111.2708,-37.9986C142.0979,-22.8886 197.0669,0 247.1915,0 247.1915,0 247.1915,0 525.9399,0 570.6256,0 619.1271,-18.7981 650.3403,-33.5691"/>
<polygon fill="#ff0000" stroke="#ff0000" points="648.9251,-36.7727 659.4488,-37.9986 651.9865,-30.4776 648.9251,-36.7727"/>
<text text-anchor="middle" x="386.5657" y="-4.2" font-family="Times,serif" font-size="14.00" fill="#000000">从起点无条件指向终点</text>
</g>
</g>
</svg>